#!OML:ASF X:\für Bonn\!DataBase\2005_08_10_Bjorn_Final\c3d\bjorn.ASF
:FULLY-SPECIFIED
:DEGREES
763
root -1.33641 1.45971 21.3732 -444.417 -174.305 8.61418
lowerback -6.90781 -0.812158 -7.49084
upperback 1.70814 -0.348881 -4.01363
thorax 5.7012 -0.422405 -0.0483678
lowerneck -13.6271 -5.17116 -1.41728
upperneck 1.19195 -7.28438 5.09408
head 3.05248 -3.56975 1.40968
rclavicle 2.38542e-014 -2.3059e-014
rhumerus -244.436 -124.942 191.299
rradius 11.2309
rwrist 95.568
rhand -16.412 -0.147299
rfingers 7.12502
rthumb 9.80266 -29.8991
lclavicle 2.38542e-014 -2.3059e-014
lhumerus -384.335 52.2646 -341.881
lradius 12.4758
lwrist -89.4625
lhand -13.9409 3.57021
lfingers 7.12502
lthumb 12.1861 33.1953
rfemur -195.188 -155.444 186.684
rtibia 31.4535
rfoot 3.94565 -11.821
rtoes 15.3594
lfemur -13.2467 2.56354 -22.246
ltibia 22.0188
lfoot 10.0296 5.75261
ltoes -7.34649
764
root -1.33647 1.46015 21.3727 -444.436 -174.324 8.60688
lowerback -6.87725 -0.813551 -7.49392
upperback 1.69974 -0.354221 -3.98741
thorax 5.67532 -0.424128 -0.0189654
lowerneck -13.6217 -5.17249 -1.4743
upperneck 1.22291 -7.27602 5.10585
head 3.06529 -3.56408 1.42412
rclavicle -2.06736e-014 -2.73329e-014
rhumerus -244.007 -125.081 190.811
rradius 11.2033
rwrist 95.0285
rhand -16.1863 0.0230224
rfingers 7.12502
rthumb 10.0204 -29.7184
lclavicle -2.06736e-014 -2.73329e-014
lhumerus -384.173 51.8243 -341.693
lradius 12.5769
lwrist -89.0915
lhand -14.411 4.28643
lfingers 7.12502
lthumb 11.7328 33.9378
rfemur -195.166 -155.386 186.693
rtibia 31.4501
rfoot 3.99873 -11.7843
rtoes 15.3019
lfemur -13.2315 2.65449 -22.2262
ltibia 22.0289
lfoot 10.0659 5.71515
ltoes -7.14151
765
root -1.33694 1.45996 21.3728 -444.449 -174.343 8.60986
lowerback -6.84272 -0.825346 -7.48269
upperback 1.69036 -0.374594 -3.97522
thorax 5.64676 -0.432462 -0.0139098
lowerneck -13.6608 -5.16167 -1.45348
upperneck 1.28033 -7.26138 5.06286
head 3.08898 -3.55568 1.40594
rclavicle -2.54444e-014 -2.88238e-014
rhumerus -243.447 -125.279 190.149
rradius 11.1693
rwrist 94.4325
rhand -16.0134 0.159591
rfingers 7.12502
rthumb 10.1872 -29.5738
lclavicle -2.54444e-014 -2.88238e-014
lhumerus -384.083 51.6207 -341.656
lradius 12.622
lwrist -88.9431
lhand -14.8811 4.95109
lfingers 7.12502
lthumb 11.2794 34.6278
rfemur -195.149 -155.359 186.707
rtibia 31.444
rfoot 4.02578 -11.7676
rtoes 15.2769
lfemur -13.2265 2.69847 -22.2116
ltibia 22.0423
lfoot 10.0855 5.66046
ltoes -7.16353
766
root -1.33721 1.46037 21.3725 -444.469 -174.362 8.60171
lowerback -6.81292 -0.832294 -7.47424
upperback 1.68292 -0.38785 -3.96208
thorax 5.62261 -0.437653 -0.00560007
lowerneck -13.6513 -5.14832 -1.44144
upperneck 1.29002 -7.24349 5.04648
head 3.08854 -3.54678 1.39992
rclavicle 1.11319e-014 -7.7526e-015
rhumerus -242.881 -125.505 189.468
rradius 11.1621
rwrist 93.8539
rhand -15.8696 0.291364
rfingers 7.12502
rthumb 10.3259 -29.4351
lclavicle 1.11319e-014 -7.7526e-015
lhumerus -383.964 51.273 -341.545
lradius 12.6821
lwrist -88.6649
lhand -15.3556 5.65559
lfingers 7.12502
lthumb 10.8218 35.3568
rfemur -195.122 -155.36 186.718
rtibia 31.4357
rfoot 4.03735 -11.7597
rtoes 15.2712
lfemur -13.2081 2.69382 -22.1893
ltibia 22.0564
lfoot 10.0643 5.65845
ltoes -7.01212
767
root -1.33726 1.46038 21.3725 -444.489 -174.381 8.60413
lowerback -6.77349 -0.835883 -7.47525
upperback 1.68211 -0.396528 -3.93586
thorax 5.59992 -0.441109 0.0222449
lowerneck -13.6694 -5.14825 -1.48966
upperneck 1.30107 -7.23408 5.04805
head 3.09785 -3.54129 1.40915
rclavicle 1.11319e-014 -1.19271e-015
rhumerus -242.359 -125.704 188.876
rradius 11.1401
rwrist 93.2961
rhand -15.7271 0.399806
rfingers 7.12502
rthumb 10.4634 -29.3198
lclavicle 1.11319e-014 -1.19271e-015
lhumerus -383.912 51.2155 -341.512
lradius 12.7044
lwrist -88.69
lhand -15.9302 6.3026
lfingers 7.12502
lthumb 10.2675 36.032
rfemur -195.092 -155.369 186.729
rtibia 31.4256
rfoot 4.03353 -11.7638
rtoes 15.2674
lfemur -13.2031 2.79841 -22.1705
ltibia 22.0701
lfoot 10.1125 5.56429
ltoes -6.8508
768
root -1.33681 1.46042 21.3726 -444.504 -174.399 8.61591
lowerback -6.74465 -0.852573 -7.47903
upperback 1.67413 -0.42129 -3.91871
thorax 5.57662 -0.452226 0.0401903
lowerneck -13.6847 -5.13367 -1.46399
upperneck 1.33602 -7.21514 5.00852
head 3.10906 -3.53151 1.39235
rclavicle -3.18055e-015 -5.54609e-014
rhumerus -242.111 -125.779 188.6
rradius 11.1282
rwrist 93.0139
rhand -15.5821 0.519019
rfingers 7.12502
rthumb 10.6033 -29.1935
lclavicle -3.18055e-015 -5.54609e-014
lhumerus -383.942 51.2381 -341.612
lradius 12.7085
lwrist -88.8121
lhand -16.564 6.84411
lfingers 7.12502
lthumb 9.65604 36.6028
rfemur -195.066 -155.373 186.744
rtibia 31.4175
rfoot 4.01829 -11.7605
rtoes 15.3447
lfemur -13.196 2.82643 -22.1479
ltibia 22.0843
lfoot 10.1162 5.53827
ltoes -6.6034
769
root -1.33705 1.46058 21.3723 -444.524 -174.419 8.60749
lowerback -6.70734 -0.850331 -7.46011
upperback 1.66846 -0.424194 -3.91021
thorax 5.54929 -0.452094 0.0391542
lowerneck -13.7037 -5.13655 -1.48913
upperneck 1.35973 -7.21569 5.01998
head 3.12273 -3.53059 1.39988
rclavicle -6.20208e-014 4.37326e-014
rhumerus -241.9 -125.872 188.348
rradius 11.1109
rwrist 92.7135
rhand -15.4871 0.660635
rfingers 7.12502
rthumb 10.6949 -29.0472
lclavicle -6.20208e-014 4.37326e-014
lhumerus -384.005 51.4532 -341.757
lradius 12.6924
lwrist -89.1075
lhand -17.2052 7.31012
lfingers 7.12502
lthumb 9.03736 37.0965
rfemur -195.039 -155.371 186.755
rtibia 31.4087
rfoot 4.03305 -11.7505
rtoes 15.3369
lfemur -13.1785 2.86301 -22.1317
ltibia 22.0982
lfoot 10.1483 5.48548
ltoes -6.64491
770
root -1.33755 1.4603 21.3719 -444.545 -174.438 8.6103
lowerback -6.65488 -0.861905 -7.46522
upperback 1.64765 -0.445725 -3.88242
thorax 5.49882 -0.460777 0.0701445
lowerneck -13.6991 -5.12303 -1.51684
upperneck 1.41098 -7.19015 5.00735
head 3.13958 -3.51634 1.40224
rclavicle 4.13472e-014 3.13086e-014
rhumerus -241.254 -126.172 187.604
rradius 11.1003
rwrist 92.1482
rhand -15.3738 0.769596
rfingers 7.12502
rthumb 10.8042 -28.9325
lclavicle 4.13472e-014 3.13086e-014
lhumerus -384.221 51.8614 -342.046
lradius 12.6659
lwrist -89.5969
lhand -17.8306 7.6788
lfingers 7.12502
lthumb 8.43378 37.4904
rfemur -195.012 -155.288 186.762
rtibia 31.3998
rfoot 4.10148 -11.6947
rtoes 15.1986
lfemur -13.1639 2.86064 -22.1099
ltibia 22.116
lfoot 10.1251 5.50499
ltoes -6.42717
771
root -1.33713 1.46056 21.372 -444.556 -174.458 8.60076
lowerback -6.64048 -0.871945 -7.46585
upperback 1.65578 -0.459409 -3.86373
thorax 5.50021 -0.467397 0.0886316
lowerneck -13.7345 -5.11101 -1.49457
upperneck 1.42064 -7.17442 4.96941
head 3.14613 -3.50875 1.38606
rclavicle -4.92986e-014 1.64991e-014
rhumerus -241.307 -126.084 187.695
rradius 11.0901
rwrist 92.1575
rhand -15.2939 0.899373
rfingers 7.12502
rthumb 10.8812 -28.7987
lclavicle -4.92986e-014 1.64991e-014
lhumerus -384.335 52.1559 -342.233
lradius 12.6467
lwrist -89.8617
lhand -18.3335 7.94733
lfingers 7.12502
lthumb 7.9485 37.7779
rfemur -194.995 -155.305 186.781
rtibia 31.3902
rfoot 4.09843 -11.6976
rtoes 15.202
lfemur -13.1645 2.88068 -22.0871
ltibia 22.1349
lfoot 10.1171 5.52099
ltoes -6.18582
772
root -1.33723 1.46132 21.3724 -444.583 -174.459 8.60481
lowerback -6.59564 -0.862618 -7.45789
upperback 1.64434 -0.453741 -3.8771
thorax 5.46191 -0.463368 0.0719447
lowerneck -13.7524 -5.11121 -1.4494
upperneck 1.47573 -7.18131 4.94265
head 3.16551 -3.51128 1.36781
rclavicle 3.18055e-014 -1.39149e-014
rhumerus -240.937 -126.327 187.191
rradius 11.1002
rwrist 91.7261
rhand -15.1857 0.981271
rfingers 7.12502
rthumb 10.9857 -28.7113
lclavicle 3.18055e-014 -1.39149e-014
lhumerus -384.309 52.2353 -342.299
lradius 12.616
lwrist -90.0035
lhand -18.7565 8.1808
lfingers 7.12502
lthumb 7.54018 38.0264
rfemur -194.957 -155.265 186.772
rtibia 31.3815
rfoot 4.14903 -11.6645
rtoes 15.0646
lfemur -13.1477 3.02097 -22.0923
ltibia 22.1512
lfoot 10.176 5.38768
ltoes -6.30827
773
root -1.33749 1.46173 21.3721 -444.603 -174.479 8.59661
lowerback -6.57021 -0.873658 -7.46738
upperback 1.64809 -0.46949 -3.84674
thorax 5.4527 -0.470888 0.107651
lowerneck -13.7822 -5.09573 -1.47902
upperneck 1.49944 -7.15392 4.9373
head 3.17968 -3.49651 1.37249
rclavicle -2.22639e-014 3.54831e-014
rhumerus -240.371 -126.554 186.545
rradius 11.0893
rwrist 91.205
rhand -15.0545 1.06566
rfingers 7.12502
rthumb 11.1122 -28.6201
lclavicle -2.22639e-014 3.54831e-014
lhumerus -384.459 52.5115 -342.474
lradius 12.6043
lwrist -90.2296
lhand -19.1529 8.47858
lfingers 7.12502
lthumb 7.15755 38.3375
rfemur -194.93 -155.249 186.782
rtibia 31.3721
rfoot 4.16347 -11.6382
rtoes 15.0038
lfemur -13.1295 3.01488 -22.0698
ltibia 22.1659
lfoot 10.158 5.39679
ltoes -6.22541
774
root -1.33725 1.46202 21.3722 -444.605 -174.478 8.60422
lowerback -6.54939 -0.883375 -7.47635
upperback 1.63476 -0.484563 -3.84492
thorax 5.42774 -0.477546 0.113514
lowerneck -13.7844 -5.09567 -1.49106
upperneck 1.51781 -7.1529 4.94949
head 3.18768 -3.49513 1.37853
rclavicle 4.77083e-015 -2.29596e-014
rhumerus -239.964 -126.779 186.007
rradius 11.1077
rwrist 90.7452
rhand -14.9963 1.10481
rfingers 7.12502
rthumb 11.1683 -28.578
lclavicle 4.77083e-015 -2.29596e-014
lhumerus -384.618 52.8302 -342.697
lradius 12.5896
lwrist -90.5794
lhand -19.5235 8.7325
lfingers 7.12502
lthumb 6.79978 38.6033
rfemur -194.92 -155.248 186.78
rtibia 31.3637
rfoot 4.15938 -11.6434
rtoes 15.0605
lfemur -13.1406 3.03317 -22.0706
ltibia 22.1809
lfoot 10.1503 5.40499
ltoes -6.11355
